<svg width="17" height="16" viewBox="0 0 17 16" fill="none" xmlns="http://www.w3.org/2000/svg">
  <path d="M8.5 3.33163C5.59229 3.28904 3.09037 4.90568 1.79507 7.22496C1.39847 7.92884 1.39847 8.87148 1.79507 9.57536C3.39914 12.3971 6.10871 13.7113 8.5 13.6688C10.8913 13.7113 13.6009 12.3971 15.2051 9.57536C15.6015 8.87148 15.6015 7.92884 15.2051 7.22496C13.9096 4.90568 11.4077 3.28904 8.5 3.33163Z" stroke="#79747F" stroke-width="1.5" stroke-linecap="round" stroke-linejoin="round"/>
  <path d="M8.5 10.3354C9.32257 10.3354 9.99957 9.65839 9.99957 8.83582C9.99957 8.01324 9.32257 7.33624 8.5 7.33624C7.67743 7.33624 7.00043 8.01324 7.00043 8.83582C7.00043 9.65839 7.67743 10.3354 8.5 10.3354Z" fill="#79747F"/>
</svg>